<svg width="48" height="48" fill="none" xmlns="http://www.w3.org/2000/svg"><path d="M20 8a4 4 0 108 0 4 4 0 00-8 0z" stroke="#C7D78D" stroke-width="3"/><path opacity=".4" d="M15.772 20c1.371 2.794 2.837 5.41 2.498 8.628-.54 5.146-6.78 7.082-10.77 9.453C4.886 39.634 5.864 44 9.072 44c3.889 0 7.36-.31 10.87-1.96l3.87-2.381 3.951 2.381c3.584 1.65 7.129 1.96 11.1 1.96 3.276 0 4.274-4.366 1.605-5.92-4.075-2.37-10.446-4.306-10.998-9.452-.346-3.218 1.15-5.834 2.551-8.628l.338-.61A11.96 11.96 0 0024 16c-3.3 0-6.288 1.332-8.458 3.487l.23.513z" fill="#C7D78D"/><path d="M32.021 20c-1.4 2.794-2.897 5.41-2.551 8.628.552 5.146 6.923 7.082 10.998 9.453C43.137 39.634 42.139 44 38.863 44c-3.971 0-7.516-.31-11.1-1.96l-7.026-4.234c-.82-.378-1.821-.303-2.737 0" stroke="#C7D78D" stroke-width="3" stroke-linecap="round" stroke-linejoin="round"/><path d="M15.772 20c1.371 2.794 2.837 5.41 2.498 8.628-.54 5.146-6.78 7.082-10.77 9.453C4.886 39.634 5.864 44 9.072 44c3.889 0 7.36-.31 10.87-1.96l6.88-4.234c.955-.45 2.16-.258 3.178.194" stroke="#C7D78D" stroke-width="3" stroke-linecap="round" stroke-linejoin="round"/><path d="M6 32c4.892 0 7.087-5.41 7.787-9.142.182-.974.478-1.945 1.125-2.695A11.972 11.972 0 0124 16c3.632 0 6.887 1.613 9.087 4.163.648.75.944 1.721 1.126 2.695C34.913 26.59 37.108 32 42 32" stroke="#C7D78D" stroke-width="3" stroke-linecap="round" stroke-linejoin="round"/></svg>